<?xml version="1.0" encoding="UTF-8" standalone="no"?>
<!DOCTYPE svg PUBLIC "-//W3C//DTD SVG 1.1//EN"
 "http://www.w3.org/Graphics/SVG/1.1/DTD/svg11.dtd">
<!-- Generated by graphviz version 2.40.1 (20161225.0304)
 -->
<!-- Title: flowbcaR_flow Pages: 1 -->
<svg width="868pt" height="384pt"
 viewBox="0.00 0.00 868.26 384.00" xmlns="http://www.w3.org/2000/svg" xmlns:xlink="http://www.w3.org/1999/xlink">
<g id="graph0" class="graph" transform="scale(1 1) rotate(0) translate(4 380)">
<title>flowbcaR_flow</title>
<polygon fill="#ffffff" stroke="transparent" points="-4,4 -4,-380 864.2584,-380 864.2584,4 -4,4"/>
<g id="clust1" class="cluster">
<title>cluster_input</title>
<polygon fill="none" stroke="#000000" stroke-dasharray="5,2" points="8,-8 8,-151 132.4952,-151 132.4952,-8 8,-8"/>
<text text-anchor="middle" x="70.2476" y="-134.4" font-family="Times,serif" font-size="14.00" fill="#000000">1. Input Data</text>
</g>
<g id="clust2" class="cluster">
<title>cluster_core</title>
<polygon fill="none" stroke="#000000" points="169.4377,-142 169.4377,-219 287.5247,-219 287.5247,-142 169.4377,-142"/>
<text text-anchor="middle" x="228.4812" y="-202.4" font-family="Times,serif" font-size="14.00" fill="#000000">2. Core Clustering</text>
</g>
<g id="clust3" class="cluster">
<title>cluster_analysis</title>
<polygon fill="none" stroke="#000000" points="531.2134,-21 531.2134,-368 702.738,-368 702.738,-21 531.2134,-21"/>
<text text-anchor="middle" x="616.9757" y="-351.4" font-family="Times,serif" font-size="14.00" fill="#000000">3. Analysis &amp; Visualization</text>
</g>
<g id="clust4" class="cluster">
<title>cluster_diagnosis</title>
<polygon fill="none" stroke="#000000" points="153.4952,-57 153.4952,-134 303.4672,-134 303.4672,-57 153.4952,-57"/>
<text text-anchor="middle" x="228.4812" y="-117.4" font-family="Times,serif" font-size="14.00" fill="#000000">4. All&#45;in&#45;One Diagnosis</text>
</g>
<!-- A -->
<g id="node1" class="node">
<title>A</title>
<polygon fill="none" stroke="#000000" points="124.7439,-117.6019 121.7439,-121.6019 100.7439,-121.6019 97.7439,-117.6019 15.7513,-117.6019 15.7513,-76.3981 124.7439,-76.3981 124.7439,-117.6019"/>
<text text-anchor="middle" x="70.2476" y="-101.2" font-family="Times,serif" font-size="14.00" fill="#000000">flow_input</text>
<text text-anchor="middle" x="70.2476" y="-84.4" font-family="Times,serif" font-size="14.00" fill="#000000">(OD data.frame)</text>
</g>
<!-- C -->
<g id="node3" class="node">
<title>C</title>
<polygon fill="#add8e6" stroke="#000000" points="258.5683,-186 197.3941,-186 197.3941,-150 258.5683,-150 258.5683,-186"/>
<text text-anchor="middle" x="227.9812" y="-163.8" font-family="Times,serif" font-size="14.00" fill="#000000">flowbca</text>
</g>
<!-- A&#45;&gt;C -->
<g id="edge1" class="edge">
<title>A&#45;&gt;C</title>
<path fill="none" stroke="#000000" d="M110.608,-117.6327C124.1382,-124.3467 139.3749,-131.6899 153.4952,-138 164.5208,-142.9272 176.6134,-147.9548 187.7885,-152.4508"/>
<polygon fill="#000000" stroke="#000000" points="186.7376,-155.7997 197.3229,-156.2491 189.3283,-149.2967 186.7376,-155.7997"/>
</g>
<!-- J -->
<g id="node10" class="node">
<title>J</title>
<polygon fill="#d3d3d3" stroke="#000000" points="288.4532,-101 167.5092,-101 167.5092,-65 288.4532,-65 288.4532,-101"/>
<text text-anchor="middle" x="227.9812" y="-78.8" font-family="Times,serif" font-size="14.00" fill="#000000">flowbca_diagnosis</text>
</g>
<!-- A&#45;&gt;J -->
<g id="edge13" class="edge">
<title>A&#45;&gt;J</title>
<path fill="none" stroke="#000000" d="M124.5306,-92.182C135.106,-91.2434 146.3366,-90.2465 157.3507,-89.269"/>
<polygon fill="#000000" stroke="#000000" points="157.7283,-92.7493 167.3797,-88.3788 157.1094,-85.7767 157.7283,-92.7493"/>
</g>
<!-- B -->
<g id="node2" class="node">
<title>B</title>
<polygon fill="none" stroke="#000000" points="109.4709,-57.6019 106.4709,-61.6019 85.4709,-61.6019 82.4709,-57.6019 31.0243,-57.6019 31.0243,-16.3981 109.4709,-16.3981 109.4709,-57.6019"/>
<text text-anchor="middle" x="70.2476" y="-41.2" font-family="Times,serif" font-size="14.00" fill="#000000">KR_SiGun</text>
<text text-anchor="middle" x="70.2476" y="-24.4" font-family="Times,serif" font-size="14.00" fill="#000000">(sf object)</text>
</g>
<!-- H -->
<g id="node8" class="node">
<title>H</title>
<polygon fill="none" stroke="#000000" points="659.399,-65 574.5524,-65 574.5524,-29 659.399,-29 659.399,-65"/>
<text text-anchor="middle" x="616.9757" y="-42.8" font-family="Times,serif" font-size="14.00" fill="#000000">flowbca_gis</text>
</g>
<!-- B&#45;&gt;H -->
<g id="edge9" class="edge">
<title>B&#45;&gt;H</title>
<path fill="none" stroke="#000000" d="M109.5669,-37.7192C206.2227,-39.4871 455.4755,-44.0461 564.5525,-46.0411"/>
<polygon fill="#000000" stroke="#000000" points="564.5986,-49.5425 574.6609,-46.226 564.7266,-42.5436 564.5986,-49.5425"/>
</g>
<!-- C_out -->
<g id="node11" class="node">
<title>C_out</title>
<text text-anchor="middle" x="369.2323" y="-171.2" font-family="Times,serif" font-size="14.00" fill="#000000">bca_result</text>
<text text-anchor="middle" x="369.2323" y="-154.4" font-family="Times,serif" font-size="14.00" fill="#000000">(list)</text>
</g>
<!-- C&#45;&gt;C_out -->
<g id="edge2" class="edge">
<title>C&#45;&gt;C_out</title>
<path fill="none" stroke="#000000" d="M258.6306,-167.783C277.3179,-167.6507 301.5728,-167.479 322.6052,-167.3301"/>
<polygon fill="#000000" stroke="#000000" points="322.6578,-170.8299 332.6327,-167.2591 322.6082,-163.8301 322.6578,-170.8299"/>
</g>
<!-- D -->
<g id="node4" class="node">
<title>D</title>
<polygon fill="none" stroke="#000000" points="669.1131,-335 564.8383,-335 564.8383,-299 669.1131,-299 669.1131,-335"/>
<text text-anchor="middle" x="616.9757" y="-312.8" font-family="Times,serif" font-size="14.00" fill="#000000">build_hierarchy</text>
</g>
<!-- E -->
<g id="node5" class="node">
<title>E</title>
<polygon fill="none" stroke="#000000" points="660.5044,-281 573.447,-281 573.447,-245 660.5044,-245 660.5044,-281"/>
<text text-anchor="middle" x="616.9757" y="-258.8" font-family="Times,serif" font-size="14.00" fill="#000000">flowbca_stat</text>
</g>
<!-- E_out -->
<g id="node12" class="node">
<title>E_out</title>
<text text-anchor="middle" x="823.8783" y="-225.8" font-family="Times,serif" font-size="14.00" fill="#000000">stat_data</text>
</g>
<!-- E&#45;&gt;E_out -->
<g id="edge5" class="edge">
<title>E&#45;&gt;E_out</title>
<path fill="none" stroke="#000000" d="M660.6016,-256.0419C695.9956,-250.3967 745.6243,-242.4811 780.8553,-236.862"/>
<polygon fill="#000000" stroke="#000000" points="781.5162,-240.3009 790.8401,-235.2694 780.4136,-233.3882 781.5162,-240.3009"/>
</g>
<!-- F -->
<g id="node6" class="node">
<title>F</title>
<polygon fill="none" stroke="#000000" points="661.844,-227 572.1074,-227 572.1074,-191 661.844,-191 661.844,-227"/>
<text text-anchor="middle" x="616.9757" y="-204.8" font-family="Times,serif" font-size="14.00" fill="#000000">flowbca_plot</text>
</g>
<!-- G -->
<g id="node7" class="node">
<title>G</title>
<polygon fill="none" stroke="#000000" points="681.5012,-119 552.4502,-119 552.4502,-83 681.5012,-83 681.5012,-119"/>
<text text-anchor="middle" x="616.9757" y="-96.8" font-family="Times,serif" font-size="14.00" fill="#000000">flowbca_modularity</text>
</g>
<!-- H_out -->
<g id="node13" class="node">
<title>H_out</title>
<text text-anchor="middle" x="823.8783" y="-136.8" font-family="Times,serif" font-size="14.00" fill="#000000">gis_layers</text>
</g>
<!-- H&#45;&gt;H_out -->
<g id="edge10" class="edge">
<title>H&#45;&gt;H_out</title>
<path fill="none" stroke="#000000" d="M659.4627,-58.536C673.4621,-62.8207 688.9655,-68.0941 702.738,-74 731.7256,-86.4305 762.8281,-103.7236 786.2593,-117.6271"/>
<polygon fill="#000000" stroke="#000000" points="784.467,-120.6333 794.8436,-122.7726 788.0659,-114.6293 784.467,-120.6333"/>
</g>
<!-- I -->
<g id="node9" class="node">
<title>I</title>
<polygon fill="none" stroke="#000000" points="659.6681,-173 574.2833,-173 574.2833,-137 659.6681,-137 659.6681,-173"/>
<text text-anchor="middle" x="616.9757" y="-150.8" font-family="Times,serif" font-size="14.00" fill="#000000">flowbca_ani</text>
</g>
<!-- C_out&#45;&gt;D -->
<g id="edge3" class="edge">
<title>C_out&#45;&gt;D</title>
<path fill="none" stroke="#000000" d="M378.0362,-187.7092C387.0432,-206.6161 402.7265,-234.1149 423.9974,-251 461.9156,-281.0999 514.3775,-297.8743 555.0318,-306.9712"/>
<polygon fill="#000000" stroke="#000000" points="554.3214,-310.3983 564.8323,-309.068 555.7859,-303.5533 554.3214,-310.3983"/>
<text text-anchor="middle" x="472.6054" y="-301.2" font-family="Times,serif" font-size="14.00" fill="#000000">unit_set</text>
</g>
<!-- C_out&#45;&gt;E -->
<g id="edge4" class="edge">
<title>C_out&#45;&gt;E</title>
<path fill="none" stroke="#000000" d="M405.8116,-183.7951C438.3755,-198.4538 487.4869,-219.8476 531.2134,-236 541.5273,-239.8099 552.6582,-243.5673 563.3758,-247.0127"/>
<polygon fill="#000000" stroke="#000000" points="562.4768,-250.3992 573.0669,-250.0816 564.5901,-243.7258 562.4768,-250.3992"/>
<text text-anchor="middle" x="472.6054" y="-234.2" font-family="Times,serif" font-size="14.00" fill="#000000">F_matrix_history</text>
</g>
<!-- C_out&#45;&gt;G -->
<g id="edge7" class="edge">
<title>C_out&#45;&gt;G</title>
<path fill="none" stroke="#000000" d="M388.5932,-146.0155C398.2937,-136.873 410.7775,-126.9866 423.9974,-121.4 460.873,-105.8168 505.0936,-100.3049 541.8955,-98.8721"/>
<polygon fill="#000000" stroke="#000000" points="542.1745,-102.3655 552.0666,-98.5712 541.9674,-95.3685 542.1745,-102.3655"/>
<text text-anchor="middle" x="472.6054" y="-142" font-family="Times,serif" font-size="14.00" fill="#000000">unit_set &amp;</text>
<text text-anchor="middle" x="472.6054" y="-125.2" font-family="Times,serif" font-size="14.00" fill="#000000">F_matrix_history</text>
</g>
<!-- C_out&#45;&gt;H -->
<g id="edge8" class="edge">
<title>C_out&#45;&gt;H</title>
<path fill="none" stroke="#000000" d="M376.3256,-146.3412C384.4893,-125.8564 399.9506,-95.2734 423.9974,-79.2 446.4065,-64.2213 515.2023,-55.4389 564.2555,-50.9269"/>
<polygon fill="#000000" stroke="#000000" points="564.7473,-54.3971 574.3994,-50.0282 564.1296,-47.4244 564.7473,-54.3971"/>
<text text-anchor="middle" x="472.6054" y="-83.2" font-family="Times,serif" font-size="14.00" fill="#000000">unit_set</text>
</g>
<!-- C_out&#45;&gt;I -->
<g id="edge12" class="edge">
<title>C_out&#45;&gt;I</title>
<path fill="none" stroke="#000000" d="M405.7877,-165.2294C447.5448,-163.2068 516.2361,-159.8795 563.8899,-157.5713"/>
<polygon fill="#000000" stroke="#000000" points="564.2021,-161.0604 574.021,-157.0806 563.8634,-154.0686 564.2021,-161.0604"/>
<text text-anchor="middle" x="472.6054" y="-168.2" font-family="Times,serif" font-size="14.00" fill="#000000">unit_set</text>
</g>
<!-- E_out&#45;&gt;F -->
<g id="edge6" class="edge">
<title>E_out&#45;&gt;F</title>
<path fill="none" stroke="#000000" d="M790.9314,-226.656C759.0378,-223.4189 710.0895,-218.4508 672.231,-214.6083"/>
<polygon fill="#000000" stroke="#000000" points="672.1728,-211.0844 661.8705,-213.5567 671.4659,-218.0487 672.1728,-211.0844"/>
</g>
<!-- H_out&#45;&gt;I -->
<g id="edge11" class="edge">
<title>H_out&#45;&gt;I</title>
<path fill="none" stroke="#000000" d="M787.5328,-143.4593C754.887,-145.6683 706.558,-148.9384 669.6727,-151.4343"/>
<polygon fill="#000000" stroke="#000000" points="669.336,-147.949 659.5952,-152.1162 669.8087,-154.933 669.336,-147.949"/>
<text text-anchor="middle" x="741.1181" y="-152.2" font-family="Times,serif" font-size="14.00" fill="#000000">gis_layers</text>
</g>
</g>
</svg>

